<?xml version="1.0" encoding="iso-8859-1"?>
<!-- Generator: Adobe Illustrator 19.0.0, SVG Export Plug-In . SVG Version: 6.00 Build 0)  -->
<svg version="1.1" id="Layer_1" xmlns="http://www.w3.org/2000/svg" xmlns:xlink="http://www.w3.org/1999/xlink" x="0px" y="0px"
	 viewBox="0 0 509.708 509.708" style="enable-background:new 0 0 509.708 509.708;" xml:space="preserve">
<g transform="translate(-1)">
	<path style="fill:#E39700;" d="M460.772,152.395c-2.26,0-4.52-0.865-6.241-2.586l-18.732-18.723c-3.443-3.452-3.443-9.039,0-12.482
		c3.452-3.452,9.039-3.452,12.482,0l18.732,18.723c3.452,3.452,3.452,9.031,0,12.482
		C465.292,151.529,463.032,152.395,460.772,152.395"/>
	<polygon style="fill:#FFCB43;" points="348.413,293.377 329.69,274.654 491.976,112.359 510.708,131.082 	"/>
	<path style="fill:#E39700;" d="M236.057,205.989L11.342,430.704c-13.789,13.789-13.789,36.149,0,49.938s36.149,13.789,49.938,0
		l224.715-224.715L236.057,205.989z"/>
	<polygon style="fill:#FFCB43;" points="298.477,268.409 223.575,193.507 367.138,49.935 442.04,124.846 	"/>
	<polygon style="fill:#E39700;" points="442.044,124.842 367.142,49.94 398.347,18.726 473.258,93.628 	"/>
	<polygon style="fill:#FFCB43;" points="80.006,411.976 55.042,387.012 192.364,249.681 217.328,274.654 	"/>
</g>
<g>
</g>
<g>
</g>
<g>
</g>
<g>
</g>
<g>
</g>
<g>
</g>
<g>
</g>
<g>
</g>
<g>
</g>
<g>
</g>
<g>
</g>
<g>
</g>
<g>
</g>
<g>
</g>
<g>
</g>
</svg>
